<svg xmlns="http://www.w3.org/2000/svg" width="1200" height="630" viewBox="0 0 1200 630" role="img" aria-label="Braingent social card">
  <rect width="1200" height="630" fill="#f4ead5"/>
  <path d="M0 96h1200M0 192h1200M0 288h1200M0 384h1200M0 480h1200M0 576h1200M120 0v630M240 0v630M360 0v630M480 0v630M600 0v630M720 0v630M840 0v630M960 0v630M1080 0v630" stroke="#3a3221" stroke-opacity=".08" stroke-width="1"/>
  <rect x="96" y="82" width="1008" height="466" rx="18" fill="#fffdf7" stroke="#3a3221" stroke-opacity=".2"/>
  <circle cx="176" cy="162" r="42" fill="none" stroke="#3a3221" stroke-width="4"/>
  <path d="M164 135h25c15 0 24 7 24 19 0 8-5 14-12 17 10 2 16 10 16 20 0 14-12 22-29 22h-31v-78h7Zm12 31h13c8 0 12-4 12-10 0-7-5-10-13-10h-12v20Zm0 36h16c8 0 13-5 13-12 0-8-5-12-14-12h-15v24Z" fill="#8b2e1f"/>
  <text x="96" y="296" fill="#2b2518" font-family="Georgia, serif" font-size="88" font-weight="600">Braingent</text>
  <text x="100" y="358" fill="#8b2e1f" font-family="Georgia, serif" font-size="46" font-style="italic">engineering memory that keeps the receipts</text>
  <text x="100" y="440" fill="#51462f" font-family="Arial, sans-serif" font-size="30">Git-backed context for humans and AI agents.</text>
</svg>
